<?xml version="1.0" encoding="UTF-8"?>
<!DOCTYPE svg PUBLIC "-//W3C//DTD SVG 1.1//EN" "http://www.w3.org/Graphics/SVG/1.1/DTD/svg11.dtd">
<!-- Creator: CorelDRAW -->
<svg xmlns="http://www.w3.org/2000/svg" xml:space="preserve" width="11.6929in" height="4.52756in" version="1.1" style="shape-rendering:geometricPrecision; text-rendering:geometricPrecision; image-rendering:optimizeQuality; fill-rule:evenodd; clip-rule:evenodd"
viewBox="0 0 11692.91 4527.56"
 xmlns:xlink="http://www.w3.org/1999/xlink"
 xmlns:xodm="http://www.corel.com/coreldraw/odm/2003">
 <defs>
  <style type="text/css">
   <![CDATA[
    .fil1 {fill:#8FC74B;fill-rule:nonzero}
    .fil0 {fill:#37ABE1;fill-rule:nonzero}
   ]]>
  </style>
 </defs>
 <g id="TEXTS">
  <metadata id="CorelCorpID_0Corel-Layer"/>
  <path class="fil0" d="M4162.1 2547.82c0,46.53 -9.82,87.23 -29.42,122.11 -19.64,34.91 -46.16,64.33 -79.61,88.33 -33.45,24 -73.79,42.17 -121.05,54.52 -47.26,12.38 -97.78,18.54 -151.57,18.54 -87.23,0 -158.49,-7.62 -213.74,-22.9 -55.25,-15.24 -96.69,-36.71 -124.31,-64.33 -27.63,-27.62 -43.6,-58.87 -47.99,-93.79 -4.36,-34.88 -6.52,-79.94 -6.52,-135.19l43.6 0c11.65,71.22 42.17,127.2 91.63,167.91 49.43,40.74 120.65,61.07 213.7,61.07 82.87,0 143.58,-14.54 182.12,-43.6 38.54,-29.09 57.78,-65.43 57.78,-109.07 0,-43.6 -16.34,-80.31 -49.06,-110.13 -32.72,-29.82 -81.77,-58.51 -147.2,-86.13l-130.87 -54.55c-82.87,-33.42 -147.21,-73.06 -193,-118.85 -45.8,-45.8 -68.69,-104.31 -68.69,-175.56 0,-46.53 9.09,-87.24 27.26,-122.11 18.17,-34.91 43.27,-64.33 75.25,-88.33 31.98,-24 69.79,-42.17 113.39,-54.52 43.63,-12.38 91.59,-18.54 143.94,-18.54 82.87,0 151.2,7.62 205.02,22.9 53.78,15.24 94.49,36.71 122.11,64.33 27.62,27.63 43.63,58.88 47.99,93.76 4.36,34.91 6.52,79.98 6.52,135.22l-43.6 0c-11.65,-71.22 -41.8,-127.2 -90.53,-167.94 -48.69,-40.7 -116.65,-61.04 -203.89,-61.04 -71.26,0 -125.41,14.55 -162.48,43.6 -37.08,29.09 -55.61,65.43 -55.61,109.06 0,37.78 15.24,72.32 45.8,103.57 30.52,31.25 73.42,58.54 128.67,81.81l130.87 54.52c93.06,37.81 163.55,79.24 211.54,124.31 47.99,45.06 71.96,105.4 71.96,181.02zm295.65 -676.09c27.62,-27.62 65.4,-52.72 113.39,-75.25 47.99,-22.53 104.67,-33.78 170.11,-33.78 46.53,0 91.96,5.43 136.32,16.34 44.33,10.92 83.97,31.25 118.85,61.07 34.88,29.79 62.87,70.16 83.97,121.05 21.07,50.89 31.62,115.59 31.62,194.1l0 654.26 -196.3 0 0 -654.26c0,-53.81 -6.89,-99.61 -20.7,-137.42 -13.81,-37.78 -31.98,-68.33 -54.52,-91.59 -22.54,-23.27 -48,-39.97 -76.35,-50.16 -28.36,-10.19 -57.78,-15.28 -88.33,-15.28 -43.6,0 -83.94,11.65 -121.02,34.91 -37.07,23.26 -69.43,50.15 -97.05,80.67l0 833.12 -196.3 0 0 -1177.69c0,-65.43 -9.09,-118.15 -27.26,-158.13 -18.17,-39.97 -59.97,-59.97 -125.41,-59.97l-43.63 0 0 -43.6 196.3 0c37.81,0 69.43,3.26 94.85,9.79 25.46,6.56 45.83,19.63 61.07,39.27 15.28,19.64 25.83,46.53 31.62,80.68 5.83,34.18 8.76,78.18 8.76,131.96l0 239.89zm1501.65 425.28c0,-62.54 -6.56,-121.05 -19.64,-175.56 -13.08,-54.52 -31.62,-101.78 -55.61,-141.75 -24,-40 -52.69,-71.62 -86.13,-94.89 -33.45,-23.26 -70.52,-34.88 -111.23,-34.88 -40.7,0 -77.78,11.62 -111.23,34.88 -33.45,23.26 -62.17,54.88 -86.13,94.89 -24,39.97 -42.54,87.23 -55.61,141.75 -13.08,54.52 -19.64,113.03 -19.64,175.56 0,62.5 6.56,121.05 19.64,175.56 13.08,54.52 31.62,101.78 55.61,141.75 23.96,40.01 52.69,71.63 86.13,94.89 33.45,23.26 70.52,34.88 111.23,34.88 40.7,0 77.78,-11.61 111.23,-34.88 33.45,-23.26 62.14,-54.88 86.13,-94.89 24,-39.97 42.54,-87.23 55.61,-141.75 13.08,-54.52 19.64,-113.06 19.64,-175.56zm-752.41 0c0,-74.15 10.52,-143.58 31.62,-208.28 21.07,-64.7 52.35,-121.05 93.79,-169 41.43,-48 91.59,-86.17 150.47,-114.52 58.87,-28.36 126.87,-42.5 203.92,-42.5 75.62,0 143.21,14.15 202.82,42.5 59.61,28.35 110.13,66.53 151.57,114.52 41.43,47.96 72.69,104.3 93.79,169 21.07,64.7 31.62,134.13 31.62,208.28 0,74.15 -10.55,143.58 -31.62,208.28 -21.1,64.7 -52.35,121.05 -93.79,169.01 -41.44,47.99 -91.96,86.17 -151.57,114.49 -59.61,28.36 -127.2,42.54 -202.82,42.54 -77.05,0 -145.04,-14.18 -203.92,-42.54 -58.88,-28.32 -109.04,-66.5 -150.47,-114.49 -41.44,-47.96 -72.72,-104.31 -93.79,-169.01 -21.1,-64.7 -31.62,-134.13 -31.62,-208.28zm1294.48 381.65c33.45,16.01 68,30.92 103.61,44.73 35.61,13.81 70.16,20.7 103.61,20.7 49.43,0 91.23,-11.61 125.37,-34.88 34.18,-23.26 62.17,-54.88 83.97,-94.89 21.83,-39.97 37.81,-87.23 47.99,-141.75 10.19,-54.52 15.28,-113.06 15.28,-175.56 0,-62.54 -4.72,-121.05 -14.18,-175.56 -9.45,-54.52 -24.73,-101.78 -45.8,-141.75 -21.1,-40 -47.26,-71.62 -78.52,-94.89 -31.28,-23.26 -68.72,-34.88 -112.33,-34.88 -30.52,0 -57.44,3.63 -80.71,10.89 -23.26,7.29 -43.96,17.11 -62.14,29.45 -18.17,12.35 -34.55,26.53 -49.09,42.54 -14.51,15.98 -26.89,31.98 -37.07,47.96l0 697.89zm-196.26 -632.46c0,-65.43 -9.09,-118.12 -27.26,-158.13 -18.17,-39.97 -59.98,-59.97 -125.41,-59.97l-43.63 0 0 -43.6 196.3 0c55.25,0 97.05,7.99 125.41,24 28.35,15.97 48.33,40.7 59.97,74.15l10.89 0c21.83,-27.62 55.98,-54.55 102.51,-80.71 46.53,-26.16 110.5,-39.24 191.94,-39.24 65.43,0 122.48,14.15 171.2,42.5 48.69,28.35 89.39,66.53 122.11,114.52 32.72,47.96 57.44,104.3 74.15,169 16.74,64.7 25.09,134.13 25.09,208.28 0,74.15 -8.35,143.58 -25.09,208.28 -16.71,64.7 -42.17,121.05 -76.31,169.01 -34.18,47.99 -77.08,86.17 -128.67,114.49 -51.62,28.36 -113.06,42.54 -184.31,42.54 -61.04,0 -113.39,-6.89 -157.03,-20.7 -43.6,-13.81 -82.14,-28.72 -115.59,-44.73l0 458 -196.26 0 0 -1177.69zm1024.06 0c0,-65.43 -9.09,-118.12 -27.26,-158.13 -18.17,-39.97 -59.97,-59.97 -125.41,-59.97l-43.63 0 0 -43.6 196.3 0c55.25,0 97.05,7.62 125.41,22.9 28.36,15.28 48.33,36.71 59.98,64.33l10.88 0c27.63,-27.62 65.43,-52.72 113.43,-75.25 47.99,-22.53 104.67,-33.78 170.11,-33.78 46.53,0 91.96,5.43 136.32,16.34 44.33,10.92 83.94,31.25 118.85,61.07 34.88,29.79 62.87,70.16 83.97,121.05 21.07,50.89 31.62,115.59 31.62,194.1l0 654.26 -196.3 0 0 -654.26c0,-53.81 -6.89,-99.61 -20.7,-137.42 -13.81,-37.78 -31.98,-68.33 -54.52,-91.59 -22.57,-23.27 -47.99,-39.97 -76.35,-50.16 -28.35,-10.19 -57.78,-15.28 -88.33,-15.28 -43.6,0 -83.97,11.65 -121.05,34.91 -37.07,23.26 -69.43,50.15 -97.05,80.67l0 833.12 -196.26 0 0 -763.32zm1233.4 -174.47c27.63,-27.62 65.43,-52.72 113.43,-75.25 47.99,-22.53 104.67,-33.78 170.11,-33.78 55.25,0 105.77,10.15 151.57,30.52 45.8,20.37 82.5,61.07 110.13,122.15 37.81,-49.46 86.53,-87.26 146.14,-113.43 59.61,-26.16 119.95,-39.24 181.02,-39.24 40.7,0 79.58,5.43 116.65,16.34 37.08,10.92 69.43,31.25 97.05,61.07 27.63,29.79 49.82,70.16 66.53,121.05 16.71,50.89 25.09,115.59 25.09,194.1l0 654.26 -196.3 0 0 -654.26c0,-109.06 -15.28,-185.38 -45.8,-229.01 -30.52,-43.6 -73.42,-65.43 -128.67,-65.43 -21.8,0 -44,4.36 -66.53,13.08 -22.54,8.75 -43.97,20 -64.33,33.81 -20.34,13.81 -39.24,29.09 -56.71,45.8 -17.44,16.74 -31.25,33.08 -41.44,49.09 5.82,15.98 9.09,39.97 9.82,71.96 0.73,31.98 1.1,58.88 1.1,80.71l0 654.26 -196.3 0 0 -654.26c0,-109.06 -15.24,-185.38 -45.8,-229.01 -30.52,-43.6 -73.42,-65.43 -128.67,-65.43 -43.6,0 -83.97,11.65 -121.05,34.91 -37.07,23.26 -69.43,50.15 -97.05,80.67l0 833.12 -196.26 0 0 -763.32c0,-65.43 -9.09,-118.12 -27.26,-158.13 -18.17,-39.97 -59.97,-59.97 -125.41,-59.97l-43.63 0 0 -43.6 196.3 0c55.25,0 97.05,7.62 125.41,22.9 28.36,15.28 48.33,36.71 59.98,64.33l10.88 0zm1883.33 436.2l-65.43 0c-109.03,0 -194.47,19.97 -256.24,59.98 -61.8,39.97 -92.69,92.69 -92.69,158.09 0,34.91 5.79,65.43 17.44,91.63 11.61,26.16 26.89,47.96 45.8,65.4 18.91,17.47 40.7,30.19 65.43,38.17 24.73,7.99 50.89,12.02 78.51,12.02 53.78,0 96.32,-13.48 127.57,-40.37 31.28,-26.89 57.81,-57.05 79.61,-90.5l0 -294.41zm87.23 501.59l-76.31 -98.15 -10.92 0c-21.8,27.63 -57.41,54.52 -106.87,80.71 -49.42,26.16 -115.59,39.24 -198.46,39.24 -30.52,0 -63.97,-4.72 -100.31,-14.18 -36.35,-9.45 -70.52,-25.8 -102.51,-49.06 -31.98,-23.26 -58.88,-54.52 -80.68,-93.79 -21.83,-39.24 -32.72,-88.7 -32.72,-148.31 0,-59.61 15.24,-109.03 45.8,-148.3 30.52,-39.24 71.22,-70.49 122.11,-93.76 50.89,-23.26 109.76,-39.64 176.66,-49.09 66.9,-9.45 137.39,-14.18 211.54,-14.18l65.43 0c0,-75.59 -5.82,-137.76 -17.44,-186.45 -11.65,-48.72 -27.62,-86.5 -47.99,-113.43 -20.33,-26.89 -44.7,-45.43 -73.06,-55.61 -28.35,-10.15 -58.51,-15.24 -90.49,-15.24 -61.07,0 -112.33,13.08 -153.76,39.24 -41.44,26.19 -70.16,74.89 -86.13,146.14l-98.15 0c0,-37.81 2.17,-73.09 6.52,-105.8 4.36,-32.68 20.37,-62.87 47.99,-90.49 13.08,-13.08 31.62,-24.73 55.61,-34.88 24,-10.19 50.52,-18.17 79.61,-24 29.06,-5.82 59.98,-10.19 92.69,-13.08 32.72,-2.93 65.76,-4.36 99.21,-4.36 49.43,0 97.05,5.43 142.85,16.34 45.8,10.92 86.54,32.72 122.15,65.43 35.61,32.72 63.97,79.24 85.04,139.59 21.1,60.34 31.65,139.22 31.65,236.6l0 588.86 -109.07 0zm683.85 -1046.82c77.05,0 142.11,5.79 195.2,17.44 53.05,11.61 93.39,31.25 121.01,58.88 13.11,13.08 23.63,27.62 31.65,43.63 7.99,15.98 13.44,34.88 16.34,56.68 2.89,21.83 4.72,47.63 5.46,77.44 0.73,29.79 1.1,65.04 1.1,105.77l-43.63 0c-5.82,-93.06 -35.24,-161.75 -88.33,-206.11 -53.05,-44.33 -118.12,-66.5 -195.2,-66.5 -55.25,0 -102.48,11.62 -141.75,34.88 -39.24,23.26 -71.95,54.88 -98.15,94.89 -26.16,39.97 -45.43,87.23 -57.78,141.75 -12.35,54.52 -18.54,113.03 -18.54,175.56 0,62.5 6.19,121.05 18.54,175.56 12.35,54.52 31.62,101.78 57.78,141.75 26.19,40.01 58.91,71.63 98.15,94.89 39.28,23.26 86.5,34.88 141.75,34.88 77.08,0 139.58,-15.28 187.57,-45.8 48,-30.52 90.86,-73.42 128.67,-128.67l43.63 32.72c-49.46,82.87 -107.24,141.75 -173.4,176.66 -66.16,34.88 -142.85,52.32 -230.08,52.32 -81.41,0 -152.3,-14.18 -212.64,-42.54 -60.34,-28.32 -110.13,-66.5 -149.41,-114.49 -39.24,-47.96 -68.69,-104.31 -88.33,-169.01 -19.6,-64.7 -29.42,-134.13 -29.42,-208.28 0,-74.15 9.82,-143.58 29.42,-208.28 19.64,-64.7 49.09,-121.05 88.33,-169 39.28,-48 89.06,-86.17 149.41,-114.52 60.34,-28.36 131.23,-42.5 212.64,-42.5z"/>
  <g id="_2407484094432">
   <path class="fil1" d="M1217.11 2102.18c15.87,6.21 31.09,12.5 46.44,18.74 139.15,-220.4 358.67,-385.02 617.58,-452.22 -273.13,55.23 -508.63,214 -664.02,433.48zm-391.56 -885.23c44.87,-391.15 377.89,-695.85 780.87,-695.85 402.99,0 736.01,304.69 780.88,695.85l36.74 0c182.19,0 337.84,131.51 368.15,311.2 180.75,1071.06 212.9,1261.32 333.35,1975.14 38.44,227.75 -137.24,435.51 -368.19,435.51l-748.32 0c60.78,-105.87 49.75,-145.15 44.17,-255.6 2.69,-38.73 10,-85.36 26.2,-136.91 16.46,-66.33 49.53,-149.41 111.48,-250.05 191.15,-310.65 47.73,-477.91 167.27,-692.98 99.65,-179.43 257.47,-267.36 418.05,-319.35l-123.57 -732.19c-18.85,-111.56 -115.45,-193.21 -228.59,-193.21l-99.65 0 0 457.63 -73.49 0 0 -509c0,-355.37 -289.11,-644.48 -644.48,-644.48 -355.36,0 -644.48,289.11 -644.48,644.48l0 51.37 -173.18 0c-113.1,0 -209.7,81.65 -228.56,193.21l-333.35 1975.14c-23.85,141.47 85.14,270.41 228.63,270.41l1403.23 0c3.45,49.94 -0.48,93.52 -16.98,141.54l-1386.26 0c-230.98,0 -406.63,-207.76 -368.19,-435.51l333.35 -1975.14c30.31,-179.69 185.93,-311.2 368.11,-311.2l36.78 0zm1311.77 2346.41c-14.99,45.45 -22.12,117.4 63.9,149.41 303.26,-16.72 571.91,-163.52 751.07,-385.5l-170.87 -1012.52c-106.19,75.03 -271.88,216.21 -303.85,384.13 -29.8,156.72 -22.82,332.84 -74.33,484.01 -50.45,148.05 -188.69,248.98 -265.93,380.46zm821.19 -199.45c-188.39,253.28 -485.59,420.77 -822.4,433.34l621.26 0c143.45,0 252.48,-128.94 228.63,-270.41l-27.48 -162.93zm-1854.98 -689.01l0 0c0,-137.61 26.83,-268.94 75.4,-389.17 -17.2,-11.46 -34.13,-22.56 -50.74,-33.33 -69.23,142.13 -108.29,301.61 -108.29,470.3 0,510.25 355.47,937.19 832.24,1047.43 -3.93,-33.66 -10.36,-67.76 -18.11,-102.41 -423.23,-131.62 -730.5,-526.34 -730.5,-992.82z"/>
   <path class="fil0" d="M2226.36 2369.76c45.6,95.17 31.97,196.66 -30.54,226.65 -62.47,29.94 -150.14,-23 -195.78,-118.17 -45.64,-95.24 -31.97,-196.7 30.5,-226.65 62.46,-29.95 150.14,22.96 195.81,118.17zm-961.37 -1011.27l791.5 0 0 -51.37c0,-248.14 -201.92,-450.06 -450.06,-450.06 -248.14,0 -450.06,201.92 -450.06,450.06l0 509 108.62 0 0 -457.63zm636.5 -141.54l-590.13 0c38.73,-126.22 156.43,-218.34 295.06,-218.34 138.64,0 256.34,92.12 295.07,218.34zm-1048.86 812.74c0,0 693.02,382.33 943.95,716.94 73.57,98.11 135.04,214.37 116.63,340.08 -17.75,121.07 -99.21,206.73 -82.38,336.85 17.78,137.57 73.27,270.52 73.27,410.37 0,155.32 -95.61,238.99 -95.61,238.99 0,0 203.17,-107.55 203.17,-298.74 0,-191.19 -47.8,-322.59 71.65,-537.69 119.5,-215.07 83.63,-824.46 -1230.68,-1206.79z"/>
  </g>
 </g>
</svg>
